<svg xmlns="http://www.w3.org/2000/svg" height="1em" style="flex:none;line-height:1" width="1em" viewBox="0 0 24 24"><title>Mistral</title><g fill="none" fill-rule="nonzero"><path fill="#000" d="M15 6v4h-2V6h2zm4-4v4h-2V2h2zM3 2H1h2zM1 2h2v20H1V2zm8 12h2v4H9v-4zm8 0h2v8h-2v-8z"/><path fill="#F7D046" d="M19 2h4v4h-4V2zM3 2h4v4H3V2z"/><path fill="#F2A73B" d="M15 10V6h8v4h-8zM3 10V6h8v4H3z"/><path fill="#EE792F" d="M3 14v-4h20v4z"/><path fill="#EB5829" d="M11 14h4v4h-4v-4zm8 0h4v4h-4v-4zM3 14h4v4H3v-4z"/><path fill="#EA3326" d="M19 18h4v4h-4v-4zM3 18h4v4H3v-4z"/></g></svg>